<svg width="1024" height="104" viewBox="0 0 1024 104" fill="none" xmlns="http://www.w3.org/2000/svg">
<path fill-rule="evenodd" clip-rule="evenodd" d="M1031 0L988.042 13.4815C945.083 26.963 859.167 53.9259 773.25 55.8519C687.333 57.7778 601.417 34.6667 515.5 23.1111C429.583 11.5556 343.667 11.5556 257.75 15.4074C171.833 19.2593 85.9166 26.963 42.9583 30.8148L0 34.6667V104H42.9583C85.9166 104 171.833 104 257.75 104C343.667 104 429.583 104 515.5 104C601.417 104 687.333 104 773.25 104C859.167 104 945.083 104 988.042 104H1031V0Z" fill="#3F3D56"/>
</svg>
